<svg width="13" height="16" viewBox="0 0 13 16" fill="none" xmlns="http://www.w3.org/2000/svg">
<path d="M5.89286 0.255741L0.249511 6.03391C0.0884211 6.19885 -4.18813e-07 6.41868 -4.08567e-07 6.65309C-3.98309e-07 6.88775 0.0885482 7.10746 0.249511 7.2724L0.762 7.79701C0.922836 7.96182 1.13766 8.05262 1.36672 8.05262C1.59565 8.05262 1.81772 7.96182 1.97856 7.79701L5.27798 4.42611L5.27798 15.1356C5.27798 15.6185 5.64717 16 6.11887 16L6.8434 16C7.31511 16 7.72151 15.6185 7.72151 15.1356L7.72151 4.38787L11.0394 7.79688C11.2004 7.96169 11.4094 8.05249 11.6385 8.05249C11.8673 8.05249 12.0793 7.96169 12.2403 7.79688L12.7511 7.27227C12.9122 7.10733 13 6.88762 13 6.65296C13 6.41855 12.9111 6.19872 12.75 6.03377L7.10675 0.255611C6.94516 0.0902793 6.72944 -0.00064631 6.50013 4.10069e-06C6.27005 -0.00051621 6.05421 0.0902792 5.89286 0.255741Z" fill="#343648"/>
</svg>
