<svg width="160" height="50" viewBox="0 0 160 50" fill="none" xmlns="http://www.w3.org/2000/svg">
<g clip-path="url(#clip0)">
<rect x="0.5" y="0.499023" width="159" height="49" rx="4.5" stroke="#512D87"/>
<path d="M52.1018 37.999C52.0112 37.999 51.9262 37.965 51.8468 37.897C51.7788 37.829 51.7448 37.744 51.7448 37.642L51.7788 37.489L55.8758 26.524C55.9552 26.2407 56.1535 26.099 56.4708 26.099H58.3238C58.6185 26.099 58.8168 26.2407 58.9188 26.524L63.0158 37.489C63.0272 37.523 63.0328 37.574 63.0328 37.642C63.0328 37.744 62.9988 37.829 62.9308 37.897C62.8628 37.965 62.7835 37.999 62.6928 37.999H61.2138C61.0665 37.999 60.9532 37.965 60.8738 37.897C60.7945 37.829 60.7435 37.7554 60.7208 37.676L59.9218 35.602H54.8728L54.0738 37.676C53.9832 37.8914 53.8188 37.999 53.5808 37.999H52.1018ZM59.3268 33.647L57.3888 28.394L55.4678 33.647H59.3268ZM64.4632 41.229C64.3498 41.229 64.2535 41.1894 64.1742 41.11C64.0948 41.042 64.0552 40.9457 64.0552 40.821V29.567C64.0552 29.4424 64.0948 29.346 64.1742 29.278C64.2535 29.1987 64.3498 29.159 64.4632 29.159H65.8062C65.9308 29.159 66.0272 29.1987 66.0952 29.278C66.1745 29.346 66.2142 29.4424 66.2142 29.567V30.247C66.8488 29.4084 67.7555 28.989 68.9342 28.989C70.0788 28.989 70.9572 29.3517 71.5692 30.077C72.1812 30.791 72.5098 31.76 72.5552 32.984C72.5665 33.12 72.5722 33.3184 72.5722 33.579C72.5722 33.851 72.5665 34.055 72.5552 34.191C72.5098 35.381 72.1812 36.3444 71.5692 37.081C70.9572 37.8064 70.0788 38.169 68.9342 38.169C67.7895 38.169 66.9168 37.7667 66.3162 36.962V40.821C66.3162 40.9457 66.2765 41.042 66.1972 41.11C66.1292 41.1894 66.0328 41.229 65.9082 41.229H64.4632ZM68.3052 36.35C69.5292 36.35 70.1808 35.5964 70.2602 34.089C70.2715 33.9757 70.2772 33.8057 70.2772 33.579C70.2772 33.3524 70.2715 33.1824 70.2602 33.069C70.1808 31.5617 69.5292 30.808 68.3052 30.808C67.6478 30.808 67.1605 31.0177 66.8432 31.437C66.5258 31.8564 66.3502 32.372 66.3162 32.984L66.2992 33.63L66.3162 34.293C66.3388 34.8597 66.5145 35.347 66.8432 35.755C67.1832 36.1517 67.6705 36.35 68.3052 36.35ZM74.5278 41.229C74.4144 41.229 74.3181 41.1894 74.2388 41.11C74.1594 41.042 74.1198 40.9457 74.1198 40.821V29.567C74.1198 29.4424 74.1594 29.346 74.2388 29.278C74.3181 29.1987 74.4144 29.159 74.5278 29.159H75.8708C75.9954 29.159 76.0918 29.1987 76.1598 29.278C76.2391 29.346 76.2788 29.4424 76.2788 29.567V30.247C76.9134 29.4084 77.8201 28.989 78.9988 28.989C80.1434 28.989 81.0218 29.3517 81.6338 30.077C82.2458 30.791 82.5744 31.76 82.6198 32.984C82.6311 33.12 82.6368 33.3184 82.6368 33.579C82.6368 33.851 82.6311 34.055 82.6198 34.191C82.5744 35.381 82.2458 36.3444 81.6338 37.081C81.0218 37.8064 80.1434 38.169 78.9988 38.169C77.8541 38.169 76.9814 37.7667 76.3808 36.962V40.821C76.3808 40.9457 76.3411 41.042 76.2618 41.11C76.1938 41.1894 76.0974 41.229 75.9728 41.229H74.5278ZM78.3698 36.35C79.5938 36.35 80.2454 35.5964 80.3248 34.089C80.3361 33.9757 80.3418 33.8057 80.3418 33.579C80.3418 33.3524 80.3361 33.1824 80.3248 33.069C80.2454 31.5617 79.5938 30.808 78.3698 30.808C77.7124 30.808 77.2251 31.0177 76.9078 31.437C76.5904 31.8564 76.4148 32.372 76.3808 32.984L76.3638 33.63L76.3808 34.293C76.4034 34.8597 76.5791 35.347 76.9078 35.755C77.2478 36.1517 77.7351 36.35 78.3698 36.35ZM92.0094 38.169C91.0007 38.169 90.1337 38.016 89.4084 37.71C88.683 37.404 88.1334 37.0017 87.7594 36.503C87.3854 36.0044 87.187 35.466 87.1644 34.888C87.1644 34.786 87.1984 34.701 87.2664 34.633C87.3344 34.565 87.4194 34.531 87.5214 34.531H89.0344C89.1704 34.531 89.2724 34.5594 89.3404 34.616C89.4197 34.6614 89.4934 34.7407 89.5614 34.854C89.6747 35.2394 89.9354 35.5624 90.3434 35.823C90.7514 36.0837 91.3067 36.214 92.0094 36.214C92.814 36.214 93.4204 36.0837 93.8284 35.823C94.2364 35.551 94.4404 35.177 94.4404 34.701C94.4404 34.3837 94.3327 34.123 94.1174 33.919C93.9134 33.715 93.6017 33.5394 93.1824 33.392C92.7744 33.2447 92.1624 33.0634 91.3464 32.848C90.009 32.5307 89.0287 32.1114 88.4054 31.59C87.7934 31.0574 87.4874 30.3037 87.4874 29.329C87.4874 28.6717 87.663 28.088 88.0144 27.578C88.377 27.068 88.8927 26.6657 89.5614 26.371C90.2414 26.0764 91.029 25.929 91.9244 25.929C92.8537 25.929 93.6584 26.0934 94.3384 26.422C95.0184 26.7507 95.534 27.1644 95.8854 27.663C96.248 28.1504 96.4407 28.6377 96.4634 29.125C96.4634 29.227 96.4294 29.312 96.3614 29.38C96.2934 29.448 96.2084 29.482 96.1064 29.482H94.5254C94.2874 29.482 94.123 29.3744 94.0324 29.159C93.9644 28.7964 93.7377 28.496 93.3524 28.258C92.967 28.0087 92.491 27.884 91.9244 27.884C91.2897 27.884 90.791 28.003 90.4284 28.241C90.0657 28.479 89.8844 28.8247 89.8844 29.278C89.8844 29.5954 89.975 29.856 90.1564 30.06C90.3377 30.264 90.621 30.4454 91.0064 30.604C91.403 30.7627 91.9697 30.9384 92.7064 31.131C93.7037 31.3577 94.497 31.6127 95.0864 31.896C95.687 32.1794 96.129 32.5364 96.4124 32.967C96.6957 33.3977 96.8374 33.9474 96.8374 34.616C96.8374 35.3414 96.6334 35.976 96.2254 36.52C95.8287 37.0527 95.262 37.4607 94.5254 37.744C93.8 38.0274 92.9614 38.169 92.0094 38.169ZM102.199 37.999C101.167 37.999 100.391 37.7327 99.8698 37.2C99.3598 36.656 99.1048 35.8627 99.1048 34.82V30.961H97.7618C97.6485 30.961 97.5521 30.9214 97.4728 30.842C97.3935 30.7514 97.3538 30.6494 97.3538 30.536V29.567C97.3538 29.4537 97.3935 29.3574 97.4728 29.278C97.5521 29.1987 97.6485 29.159 97.7618 29.159H99.1048V26.337C99.1048 26.2124 99.1445 26.116 99.2238 26.048C99.3031 25.9687 99.3995 25.929 99.5128 25.929H100.89C101.014 25.929 101.111 25.9687 101.179 26.048C101.258 26.116 101.298 26.2124 101.298 26.337V29.159H103.423C103.547 29.159 103.644 29.1987 103.712 29.278C103.791 29.346 103.831 29.4424 103.831 29.567V30.536C103.831 30.6607 103.791 30.7627 103.712 30.842C103.632 30.9214 103.536 30.961 103.423 30.961H101.298V34.65C101.298 35.1374 101.383 35.5057 101.553 35.755C101.723 36.0044 102.006 36.129 102.403 36.129H103.576C103.689 36.129 103.785 36.1687 103.865 36.248C103.944 36.3274 103.984 36.4237 103.984 36.537V37.591C103.984 37.7044 103.944 37.8007 103.865 37.88C103.797 37.9594 103.7 37.999 103.576 37.999H102.199ZM109.024 38.169C107.698 38.169 106.672 37.829 105.947 37.149C105.222 36.4577 104.831 35.517 104.774 34.327L104.757 33.579L104.774 32.831C104.831 31.6524 105.227 30.7174 105.964 30.026C106.701 29.3347 107.721 28.989 109.024 28.989C110.327 28.989 111.347 29.3347 112.084 30.026C112.821 30.7174 113.217 31.6524 113.274 32.831C113.285 32.967 113.291 33.2164 113.291 33.579C113.291 33.9417 113.285 34.191 113.274 34.327C113.217 35.517 112.826 36.4577 112.101 37.149C111.376 37.829 110.35 38.169 109.024 38.169ZM109.024 36.486C109.625 36.486 110.089 36.299 110.418 35.925C110.747 35.5397 110.928 34.9787 110.962 34.242C110.973 34.1287 110.979 33.9077 110.979 33.579C110.979 33.2504 110.973 33.0294 110.962 32.916C110.928 32.1794 110.747 31.624 110.418 31.25C110.089 30.8647 109.625 30.672 109.024 30.672C108.423 30.672 107.959 30.8647 107.63 31.25C107.301 31.624 107.12 32.1794 107.086 32.916L107.069 33.579L107.086 34.242C107.12 34.9787 107.301 35.5397 107.63 35.925C107.959 36.299 108.423 36.486 109.024 36.486ZM115.205 37.999C115.092 37.999 114.995 37.9594 114.916 37.88C114.837 37.8007 114.797 37.7044 114.797 37.591V29.584C114.797 29.4707 114.837 29.3744 114.916 29.295C114.995 29.2044 115.092 29.159 115.205 29.159H116.582C116.707 29.159 116.809 29.1987 116.888 29.278C116.967 29.3574 117.007 29.4594 117.007 29.584V30.281C117.279 29.9184 117.619 29.6407 118.027 29.448C118.446 29.2554 118.922 29.159 119.455 29.159H120.152C120.277 29.159 120.373 29.1987 120.441 29.278C120.52 29.346 120.56 29.4424 120.56 29.567V30.791C120.56 30.9044 120.52 31.0007 120.441 31.08C120.373 31.1594 120.277 31.199 120.152 31.199H118.826C118.293 31.199 117.874 31.352 117.568 31.658C117.262 31.964 117.109 32.3834 117.109 32.916V37.591C117.109 37.7044 117.069 37.8007 116.99 37.88C116.911 37.9594 116.809 37.999 116.684 37.999H115.205ZM125.2 38.169C123.942 38.169 122.939 37.8064 122.191 37.081C121.454 36.3444 121.063 35.313 121.018 33.987L121.001 33.562L121.018 33.137C121.074 31.845 121.471 30.8307 122.208 30.094C122.956 29.3574 123.953 28.989 125.2 28.989C126.537 28.989 127.568 29.397 128.294 30.213C129.03 31.029 129.399 32.117 129.399 33.477V33.834C129.399 33.9474 129.359 34.0437 129.28 34.123C129.2 34.2024 129.098 34.242 128.974 34.242H123.33V34.378C123.352 35.0014 123.522 35.5284 123.84 35.959C124.168 36.3784 124.616 36.588 125.183 36.588C125.851 36.588 126.39 36.3274 126.798 35.806C126.9 35.6814 126.979 35.602 127.036 35.568C127.104 35.534 127.2 35.517 127.325 35.517H128.787C128.889 35.517 128.974 35.551 129.042 35.619C129.121 35.6757 129.161 35.7494 129.161 35.84C129.161 36.112 128.996 36.435 128.668 36.809C128.35 37.1717 127.891 37.489 127.291 37.761C126.69 38.033 125.993 38.169 125.2 38.169ZM127.087 32.814V32.763C127.087 32.0944 126.917 31.556 126.577 31.148C126.248 30.74 125.789 30.536 125.2 30.536C124.61 30.536 124.151 30.74 123.823 31.148C123.494 31.556 123.33 32.0944 123.33 32.763V32.814H127.087Z" fill="#512D87"/>
<path d="M55.9528 19.129C54.8175 19.129 53.9335 18.8214 53.3008 18.206C52.6768 17.582 52.3432 16.7327 52.2998 15.658C52.2912 15.398 52.2868 14.9907 52.2868 14.436C52.2868 13.8727 52.2912 13.4654 52.2998 13.214C52.3432 12.148 52.6812 11.3074 53.3138 10.692C53.9465 10.0767 54.8262 9.76902 55.9528 9.76902C56.7155 9.76902 57.3612 9.90769 57.8898 10.185C58.4272 10.4537 58.8302 10.783 59.0988 11.173C59.3675 11.563 59.5105 11.927 59.5278 12.265V12.291C59.5278 12.3604 59.5018 12.4167 59.4498 12.46C59.3978 12.5034 59.3328 12.525 59.2548 12.525H58.4878C58.4012 12.525 58.3362 12.512 58.2928 12.486C58.2582 12.4514 58.2235 12.3864 58.1888 12.291C58.0588 11.901 57.8075 11.5674 57.4348 11.29C57.0708 11.0127 56.5768 10.874 55.9528 10.874C55.2335 10.874 54.6702 11.069 54.2628 11.459C53.8555 11.849 53.6345 12.4557 53.5998 13.279C53.5912 13.5304 53.5868 13.916 53.5868 14.436C53.5868 14.9474 53.5912 15.333 53.5998 15.593C53.6345 16.425 53.8555 17.0404 54.2628 17.439C54.6702 17.829 55.2335 18.024 55.9528 18.024C56.6808 18.024 57.2615 17.8247 57.6948 17.426C58.1282 17.0274 58.3448 16.4294 58.3448 15.632V15.086H56.3948C56.3082 15.086 56.2345 15.06 56.1738 15.008C56.1218 14.9474 56.0958 14.8694 56.0958 14.774V14.358C56.0958 14.2714 56.1218 14.1977 56.1738 14.137C56.2345 14.0764 56.3082 14.046 56.3948 14.046H59.3328C59.4195 14.046 59.4888 14.0764 59.5408 14.137C59.6015 14.189 59.6318 14.2627 59.6318 14.358V15.606C59.6318 16.3167 59.4845 16.9364 59.1898 17.465C58.8952 17.9937 58.4705 18.4054 57.9158 18.7C57.3612 18.986 56.7068 19.129 55.9528 19.129ZM63.7326 19.129C62.8399 19.129 62.1249 18.856 61.5876 18.31C61.0589 17.7554 60.7686 17.0014 60.7166 16.048L60.7036 15.606L60.7166 15.177C60.7772 14.241 61.0719 13.4957 61.6006 12.941C62.1379 12.3864 62.8442 12.109 63.7196 12.109C64.6816 12.109 65.4269 12.4167 65.9556 13.032C66.4842 13.6387 66.7486 14.462 66.7486 15.502V15.723C66.7486 15.8097 66.7182 15.8834 66.6576 15.944C66.6056 15.996 66.5362 16.022 66.4496 16.022H61.9516V16.139C61.9776 16.7024 62.1466 17.1834 62.4586 17.582C62.7792 17.972 63.1996 18.167 63.7196 18.167C64.1182 18.167 64.4432 18.089 64.6946 17.933C64.9546 17.7684 65.1452 17.5994 65.2666 17.426C65.3446 17.322 65.4009 17.2614 65.4356 17.244C65.4789 17.218 65.5526 17.205 65.6566 17.205H66.2936C66.3716 17.205 66.4366 17.2267 66.4886 17.27C66.5406 17.3134 66.5666 17.374 66.5666 17.452C66.5666 17.6427 66.4452 17.8724 66.2026 18.141C65.9686 18.4097 65.6349 18.6437 65.2016 18.843C64.7769 19.0337 64.2872 19.129 63.7326 19.129ZM65.5136 15.125V15.086C65.5136 14.488 65.3489 14.0027 65.0196 13.63C64.6989 13.2487 64.2656 13.058 63.7196 13.058C63.1736 13.058 62.7402 13.2487 62.4196 13.63C62.1076 14.0027 61.9516 14.488 61.9516 15.086V15.125H65.5136ZM70.615 18.999C69.2457 18.999 68.561 18.2364 68.561 16.711V13.279H67.547C67.4604 13.279 67.3867 13.253 67.326 13.201C67.274 13.1404 67.248 13.0667 67.248 12.98V12.538C67.248 12.4514 67.274 12.382 67.326 12.33C67.3867 12.2694 67.4604 12.239 67.547 12.239H68.561V10.068C68.561 9.98136 68.587 9.91202 68.639 9.86002C68.6997 9.79936 68.7734 9.76902 68.86 9.76902H69.471C69.5577 9.76902 69.627 9.79936 69.679 9.86002C69.7397 9.91202 69.77 9.98136 69.77 10.068V12.239H71.382C71.4687 12.239 71.538 12.2694 71.59 12.33C71.6507 12.382 71.681 12.4514 71.681 12.538V12.98C71.681 13.0667 71.6507 13.1404 71.59 13.201C71.538 13.253 71.4687 13.279 71.382 13.279H69.77V16.62C69.77 17.0534 69.8437 17.3827 69.991 17.608C70.1384 17.8247 70.381 17.933 70.719 17.933H71.512C71.5987 17.933 71.668 17.9634 71.72 18.024C71.7807 18.076 71.811 18.1454 71.811 18.232V18.7C71.811 18.7867 71.7807 18.8604 71.72 18.921C71.668 18.973 71.5987 18.999 71.512 18.999H70.615ZM75.8579 10.978C75.7712 10.978 75.6976 10.952 75.6369 10.9C75.5849 10.8394 75.5589 10.7657 75.5589 10.679V9.97702C75.5589 9.89036 75.5849 9.81669 75.6369 9.75602C75.6976 9.69536 75.7712 9.66502 75.8579 9.66502H76.6769C76.7636 9.66502 76.8372 9.69536 76.8979 9.75602C76.9586 9.81669 76.9889 9.89036 76.9889 9.97702V10.679C76.9889 10.7657 76.9586 10.8394 76.8979 10.9C76.8372 10.952 76.7636 10.978 76.6769 10.978H75.8579ZM75.9619 18.999C75.8752 18.999 75.8016 18.973 75.7409 18.921C75.6889 18.8604 75.6629 18.7867 75.6629 18.7V12.538C75.6629 12.4514 75.6889 12.382 75.7409 12.33C75.8016 12.2694 75.8752 12.239 75.9619 12.239H76.5859C76.6726 12.239 76.7419 12.2694 76.7939 12.33C76.8546 12.382 76.8849 12.4514 76.8849 12.538V18.7C76.8849 18.7867 76.8546 18.8604 76.7939 18.921C76.7419 18.973 76.6726 18.999 76.5859 18.999H75.9619ZM81.1614 18.999C79.7921 18.999 79.1074 18.2364 79.1074 16.711V13.279H78.0934C78.0068 13.279 77.9331 13.253 77.8724 13.201C77.8204 13.1404 77.7944 13.0667 77.7944 12.98V12.538C77.7944 12.4514 77.8204 12.382 77.8724 12.33C77.9331 12.2694 78.0068 12.239 78.0934 12.239H79.1074V10.068C79.1074 9.98136 79.1334 9.91202 79.1854 9.86002C79.2461 9.79936 79.3198 9.76902 79.4064 9.76902H80.0174C80.1041 9.76902 80.1734 9.79936 80.2254 9.86002C80.2861 9.91202 80.3164 9.98136 80.3164 10.068V12.239H81.9284C82.0151 12.239 82.0844 12.2694 82.1364 12.33C82.1971 12.382 82.2274 12.4514 82.2274 12.538V12.98C82.2274 13.0667 82.1971 13.1404 82.1364 13.201C82.0844 13.253 82.0151 13.279 81.9284 13.279H80.3164V16.62C80.3164 17.0534 80.3901 17.3827 80.5374 17.608C80.6848 17.8247 80.9274 17.933 81.2654 17.933H82.0584C82.1451 17.933 82.2144 17.9634 82.2664 18.024C82.3271 18.076 82.3574 18.1454 82.3574 18.232V18.7C82.3574 18.7867 82.3271 18.8604 82.2664 18.921C82.2144 18.973 82.1451 18.999 82.0584 18.999H81.1614ZM88.9783 19.129C88.025 19.129 87.284 18.8604 86.7553 18.323C86.2353 17.7857 85.958 17.0707 85.9233 16.178L85.9103 15.619L85.9233 15.06C85.958 14.176 86.2396 13.4654 86.7683 12.928C87.297 12.382 88.0336 12.109 88.9783 12.109C89.923 12.109 90.6596 12.382 91.1883 12.928C91.717 13.4654 91.9986 14.176 92.0333 15.06C92.042 15.1554 92.0463 15.3417 92.0463 15.619C92.0463 15.8964 92.042 16.0827 92.0333 16.178C91.9986 17.0707 91.717 17.7857 91.1883 18.323C90.6683 18.8604 89.9316 19.129 88.9783 19.129ZM88.9783 18.128C89.5243 18.128 89.9533 17.9547 90.2653 17.608C90.586 17.2614 90.7593 16.763 90.7853 16.113C90.794 16.0264 90.7983 15.8617 90.7983 15.619C90.7983 15.3764 90.794 15.2117 90.7853 15.125C90.7593 14.475 90.586 13.9767 90.2653 13.63C89.9533 13.2834 89.5243 13.11 88.9783 13.11C88.4323 13.11 87.999 13.2834 87.6783 13.63C87.3576 13.9767 87.1886 14.475 87.1713 15.125L87.1583 15.619L87.1713 16.113C87.1886 16.763 87.3576 17.2614 87.6783 17.608C87.999 17.9547 88.4323 18.128 88.9783 18.128ZM93.6843 18.999C93.5976 18.999 93.5239 18.973 93.4633 18.921C93.4113 18.8604 93.3853 18.7867 93.3853 18.7V12.538C93.3853 12.4514 93.4113 12.382 93.4633 12.33C93.5239 12.2694 93.5976 12.239 93.6843 12.239H94.2953C94.3819 12.239 94.4513 12.2694 94.5033 12.33C94.5639 12.382 94.5943 12.4514 94.5943 12.538V13.11C94.8456 12.7894 95.1403 12.5424 95.4783 12.369C95.8249 12.1957 96.2539 12.109 96.7653 12.109C97.5973 12.109 98.2429 12.3777 98.7023 12.915C99.1703 13.4437 99.4043 14.15 99.4043 15.034V18.7C99.4043 18.7867 99.3739 18.8604 99.3133 18.921C99.2613 18.973 99.1919 18.999 99.1053 18.999H98.4553C98.3686 18.999 98.2949 18.973 98.2343 18.921C98.1823 18.8604 98.1563 18.7867 98.1563 18.7V15.099C98.1563 14.4837 98.0046 14.007 97.7013 13.669C97.4066 13.331 96.9776 13.162 96.4143 13.162C95.8683 13.162 95.4349 13.3354 95.1143 13.682C94.7936 14.02 94.6333 14.4924 94.6333 15.099V18.7C94.6333 18.7867 94.6029 18.8604 94.5423 18.921C94.4903 18.973 94.4209 18.999 94.3343 18.999H93.6843Z" fill="#512D87"/>
<path fill-rule="evenodd" clip-rule="evenodd" d="M31.7572 12.999C31.8983 14.2797 31.3899 15.5418 30.6467 16.4695C29.8712 17.3827 28.6306 18.0812 27.4224 17.9912C27.2642 16.7589 27.8764 15.4484 28.5617 14.6489C29.3364 13.7417 30.6816 13.0466 31.7572 12.999ZM36.6309 21.1076C36.4795 21.1862 33.9826 22.4826 34.0099 25.1263C34.0414 28.3192 37.2213 29.3748 37.2602 29.3863C37.2412 29.4607 36.7622 30.9097 35.5695 32.3809C34.5735 33.6761 33.53 34.9423 31.8725 34.9655C31.0846 34.9813 30.5525 34.7842 29.9981 34.5789C29.4198 34.3647 28.8171 34.1415 27.8743 34.1415C26.8748 34.1415 26.2454 34.3718 25.6384 34.594C25.1136 34.7861 24.6055 34.972 23.8894 34.9977C22.3108 35.0482 21.1048 33.6149 20.0727 32.3313C18.0095 29.7103 16.4033 24.9453 18.5569 21.7028C19.6004 20.1125 21.503 19.0884 23.5368 19.0611C24.4324 19.0452 25.2914 19.3454 26.0444 19.6085C26.6202 19.8097 27.1341 19.9893 27.555 19.9893C27.9247 19.9893 28.4241 19.8169 29.0063 19.616C29.9236 19.2993 31.0463 18.9118 32.19 19.0165C32.9722 19.0363 35.1979 19.2851 36.634 21.106L36.6309 21.1076Z" fill="#512D87"/>
</g>
<defs>
<clipPath id="clip0">
<rect width="160" height="50" fill="white" transform="translate(0 -0.000976562)"/>
</clipPath>
</defs>
</svg>
