<svg width="160" height="50" viewBox="0 0 160 50" fill="none" xmlns="http://www.w3.org/2000/svg">
<g clip-path="url(#clip0)">
<rect x="0.5" y="0.499023" width="159" height="49" rx="4.5" stroke="#512D87"/>
<path d="M52.967 38.169C51.403 38.169 50.1847 37.7667 49.312 36.962C48.4507 36.1574 47.9917 35.0354 47.935 33.596C47.9237 33.2674 47.918 32.7404 47.918 32.015C47.918 31.2897 47.9237 30.7627 47.935 30.434C47.9803 29.0287 48.445 27.9294 49.329 27.136C50.213 26.3314 51.4257 25.929 52.967 25.929C54.0097 25.929 54.905 26.1104 55.653 26.473C56.4123 26.8244 56.9847 27.2664 57.37 27.799C57.7553 28.3204 57.9593 28.836 57.982 29.346C57.982 29.448 57.948 29.533 57.88 29.601C57.812 29.669 57.7213 29.703 57.608 29.703H55.823C55.7097 29.703 55.6247 29.6804 55.568 29.635C55.5113 29.5897 55.4603 29.516 55.415 29.414C55.2563 28.9947 54.9787 28.6377 54.582 28.343C54.1853 28.0484 53.647 27.901 52.967 27.901C52.1737 27.901 51.5503 28.1164 51.097 28.547C50.655 28.9664 50.4227 29.6237 50.4 30.519C50.3887 30.8477 50.383 31.3464 50.383 32.015C50.383 32.6724 50.3887 33.171 50.4 33.511C50.4227 34.429 50.6607 35.109 51.114 35.551C51.5673 35.9817 52.1907 36.197 52.984 36.197C53.7887 36.197 54.4347 35.9817 54.922 35.551C55.4093 35.1204 55.653 34.4744 55.653 33.613V33.086H53.579C53.4657 33.086 53.3693 33.0464 53.29 32.967C53.2107 32.8877 53.171 32.7914 53.171 32.678V31.743C53.171 31.6297 53.2107 31.5334 53.29 31.454C53.3693 31.3747 53.4657 31.335 53.579 31.335H57.659C57.7837 31.335 57.8857 31.3747 57.965 31.454C58.0443 31.5334 58.084 31.6297 58.084 31.743V33.545C58.084 34.4857 57.8743 35.3074 57.455 36.01C57.0357 36.7014 56.4407 37.234 55.67 37.608C54.8993 37.982 53.9983 38.169 52.967 38.169ZM63.5911 38.169C62.2538 38.169 61.2225 37.829 60.4971 37.149C59.7718 36.469 59.3808 35.5284 59.3241 34.327L59.3071 33.579L59.3241 32.831C59.3808 31.641 59.7775 30.706 60.5141 30.026C61.2508 29.3347 62.2765 28.989 63.5911 28.989C64.8945 28.989 65.9145 29.3347 66.6511 30.026C67.3878 30.706 67.7845 31.641 67.8411 32.831C67.8525 32.967 67.8581 33.2164 67.8581 33.579C67.8581 33.9417 67.8525 34.191 67.8411 34.327C67.7845 35.5284 67.3935 36.469 66.6681 37.149C65.9428 37.829 64.9171 38.169 63.5911 38.169ZM63.5911 36.452C64.1918 36.452 64.6508 36.265 64.9681 35.891C65.2968 35.517 65.4725 34.9674 65.4951 34.242C65.5065 34.1287 65.5121 33.9077 65.5121 33.579C65.5121 33.2504 65.5065 33.0294 65.4951 32.916C65.4725 32.1907 65.2968 31.641 64.9681 31.267C64.6395 30.8817 64.1805 30.689 63.5911 30.689C62.9905 30.689 62.5258 30.8817 62.1971 31.267C61.8685 31.641 61.6928 32.1907 61.6701 32.916L61.6531 33.579L61.6701 34.242C61.6928 34.9674 61.8685 35.517 62.1971 35.891C62.5258 36.265 62.9905 36.452 63.5911 36.452ZM73.2905 38.169C71.9532 38.169 70.9218 37.829 70.1965 37.149C69.4712 36.469 69.0802 35.5284 69.0235 34.327L69.0065 33.579L69.0235 32.831C69.0802 31.641 69.4768 30.706 70.2135 30.026C70.9502 29.3347 71.9758 28.989 73.2905 28.989C74.5938 28.989 75.6138 29.3347 76.3505 30.026C77.0872 30.706 77.4838 31.641 77.5405 32.831C77.5518 32.967 77.5575 33.2164 77.5575 33.579C77.5575 33.9417 77.5518 34.191 77.5405 34.327C77.4838 35.5284 77.0928 36.469 76.3675 37.149C75.6422 37.829 74.6165 38.169 73.2905 38.169ZM73.2905 36.452C73.8912 36.452 74.3502 36.265 74.6675 35.891C74.9962 35.517 75.1718 34.9674 75.1945 34.242C75.2058 34.1287 75.2115 33.9077 75.2115 33.579C75.2115 33.2504 75.2058 33.0294 75.1945 32.916C75.1718 32.1907 74.9962 31.641 74.6675 31.267C74.3388 30.8817 73.8798 30.689 73.2905 30.689C72.6898 30.689 72.2252 30.8817 71.8965 31.267C71.5678 31.641 71.3922 32.1907 71.3695 32.916L71.3525 33.579L71.3695 34.242C71.3922 34.9674 71.5678 35.517 71.8965 35.891C72.2252 36.265 72.6898 36.452 73.2905 36.452ZM83.0579 41.739C82.0492 41.739 81.2332 41.569 80.6099 41.229C79.9866 40.9004 79.5446 40.5207 79.2839 40.09C79.0232 39.6594 78.8929 39.291 78.8929 38.985C78.8929 38.8717 78.9326 38.7754 79.0119 38.696C79.0912 38.628 79.1876 38.594 79.3009 38.594H80.8139C80.9159 38.594 81.0009 38.6167 81.0689 38.662C81.1482 38.7187 81.2106 38.815 81.2559 38.951C81.3806 39.2457 81.5676 39.495 81.8169 39.699C82.0662 39.9144 82.4516 40.022 82.9729 40.022C83.6529 40.022 84.1516 39.869 84.4689 39.563C84.7862 39.2684 84.9449 38.747 84.9449 37.999V36.843C84.3329 37.5684 83.4659 37.931 82.3439 37.931C81.1652 37.931 80.2756 37.574 79.6749 36.86C79.0856 36.146 78.7682 35.1714 78.7229 33.936L78.7059 33.477L78.7229 33.018C78.7682 31.8054 79.0912 30.8307 79.6919 30.094C80.2926 29.3574 81.1766 28.989 82.3439 28.989C82.9446 28.989 83.4716 29.1024 83.9249 29.329C84.3782 29.5557 84.7522 29.8617 85.0469 30.247V29.584C85.0469 29.4594 85.0866 29.3574 85.1659 29.278C85.2566 29.1987 85.3586 29.159 85.4719 29.159H86.8659C86.9792 29.159 87.0756 29.1987 87.1549 29.278C87.2342 29.3574 87.2739 29.4594 87.2739 29.584L87.2909 37.778C87.2909 39.036 86.9396 40.0107 86.2369 40.702C85.5342 41.3934 84.4746 41.739 83.0579 41.739ZM82.9899 36.129C83.6246 36.129 84.1006 35.925 84.4179 35.517C84.7352 35.109 84.9109 34.6104 84.9449 34.021C84.9562 33.9304 84.9619 33.749 84.9619 33.477C84.9619 33.205 84.9562 33.0237 84.9449 32.933C84.9109 32.3437 84.7352 31.845 84.4179 31.437C84.1006 31.029 83.6246 30.825 82.9899 30.825C81.7659 30.825 81.1199 31.573 81.0519 33.069L81.0349 33.477C81.0349 35.245 81.6866 36.129 82.9899 36.129ZM89.5857 37.999C89.4724 37.999 89.376 37.9594 89.2967 37.88C89.2174 37.8007 89.1777 37.7044 89.1777 37.591V26.337C89.1777 26.2124 89.2174 26.116 89.2967 26.048C89.376 25.9687 89.4724 25.929 89.5857 25.929H91.0137C91.1384 25.929 91.2347 25.9687 91.3027 26.048C91.382 26.116 91.4217 26.2124 91.4217 26.337V37.591C91.4217 37.7044 91.382 37.8007 91.3027 37.88C91.2347 37.9594 91.1384 37.999 91.0137 37.999H89.5857ZM97.1235 38.169C95.8542 38.169 94.8455 37.8064 94.0975 37.081C93.3609 36.3557 92.9699 35.3244 92.9245 33.987L92.9075 33.562C92.9075 32.1454 93.2759 31.029 94.0125 30.213C94.7605 29.397 95.7919 28.989 97.1065 28.989C98.4552 28.989 99.4922 29.397 100.218 30.213C100.954 31.029 101.323 32.117 101.323 33.477V33.834C101.323 33.9474 101.283 34.0437 101.204 34.123C101.124 34.2024 101.022 34.242 100.898 34.242H95.2535V34.378C95.2762 35.0127 95.4462 35.5397 95.7635 35.959C96.0922 36.367 96.5399 36.571 97.1065 36.571C97.7525 36.571 98.2795 36.3104 98.6875 35.789C98.7895 35.6644 98.8689 35.5907 98.9255 35.568C98.9822 35.534 99.0785 35.517 99.2145 35.517H100.711C100.813 35.517 100.898 35.5454 100.966 35.602C101.045 35.6587 101.085 35.738 101.085 35.84C101.085 36.112 100.92 36.435 100.592 36.809C100.274 37.1717 99.8152 37.489 99.2145 37.761C98.6139 38.033 97.9169 38.169 97.1235 38.169ZM98.9765 32.797V32.763C98.9765 32.0944 98.8065 31.5617 98.4665 31.165C98.1379 30.757 97.6845 30.553 97.1065 30.553C96.5285 30.553 96.0752 30.757 95.7465 31.165C95.4179 31.5617 95.2535 32.0944 95.2535 32.763V32.797H98.9765ZM106.851 37.999C106.738 37.999 106.642 37.9594 106.562 37.88C106.483 37.8007 106.443 37.7044 106.443 37.591V26.524C106.443 26.3994 106.477 26.2974 106.545 26.218C106.625 26.1387 106.727 26.099 106.851 26.099H111.407C112.779 26.099 113.855 26.422 114.637 27.068C115.419 27.714 115.81 28.6547 115.81 29.89C115.81 31.114 115.419 32.0434 114.637 32.678C113.855 33.3014 112.779 33.613 111.407 33.613H108.908V37.591C108.908 37.7157 108.869 37.8177 108.789 37.897C108.71 37.965 108.608 37.999 108.483 37.999H106.851ZM111.322 31.709C111.98 31.709 112.478 31.556 112.818 31.25C113.17 30.9327 113.345 30.4737 113.345 29.873C113.345 29.2837 113.175 28.8247 112.835 28.496C112.507 28.1674 112.002 28.003 111.322 28.003H108.874V31.709H111.322ZM117.509 37.999C117.396 37.999 117.299 37.9594 117.22 37.88C117.141 37.8007 117.101 37.7044 117.101 37.591V26.337C117.101 26.2124 117.141 26.116 117.22 26.048C117.299 25.9687 117.396 25.929 117.509 25.929H118.937C119.062 25.929 119.158 25.9687 119.226 26.048C119.305 26.116 119.345 26.2124 119.345 26.337V37.591C119.345 37.7044 119.305 37.8007 119.226 37.88C119.158 37.9594 119.062 37.999 118.937 37.999H117.509ZM123.789 38.169C123.211 38.169 122.678 38.0557 122.191 37.829C121.715 37.591 121.335 37.2737 121.052 36.877C120.78 36.4804 120.644 36.044 120.644 35.568C120.644 34.7974 120.956 34.174 121.579 33.698C122.202 33.222 123.058 32.899 124.146 32.729L126.475 32.389V32.032C126.475 31.5447 126.35 31.1764 126.101 30.927C125.852 30.6777 125.455 30.553 124.911 30.553C124.537 30.553 124.237 30.621 124.01 30.757C123.783 30.893 123.596 31.0347 123.449 31.182C123.313 31.318 123.222 31.4087 123.177 31.454C123.132 31.59 123.047 31.658 122.922 31.658H121.596C121.494 31.658 121.403 31.624 121.324 31.556C121.256 31.488 121.222 31.3974 121.222 31.284C121.233 31.0007 121.369 30.6834 121.63 30.332C121.902 29.9694 122.316 29.6577 122.871 29.397C123.426 29.125 124.112 28.989 124.928 28.989C126.265 28.989 127.24 29.2894 127.852 29.89C128.464 30.4907 128.77 31.2784 128.77 32.253V37.591C128.77 37.7044 128.73 37.8007 128.651 37.88C128.583 37.9594 128.487 37.999 128.362 37.999H126.951C126.838 37.999 126.741 37.9594 126.662 37.88C126.583 37.8007 126.543 37.7044 126.543 37.591V36.928C126.294 37.2907 125.942 37.591 125.489 37.829C125.036 38.0557 124.469 38.169 123.789 38.169ZM124.367 36.537C124.99 36.537 125.5 36.333 125.897 35.925C126.294 35.517 126.492 34.9277 126.492 34.157V33.817L124.792 34.089C123.489 34.293 122.837 34.7294 122.837 35.398C122.837 35.7607 122.984 36.044 123.279 36.248C123.585 36.4407 123.948 36.537 124.367 36.537ZM131.938 41.229C131.848 41.229 131.763 41.195 131.683 41.127C131.615 41.059 131.581 40.9797 131.581 40.889C131.581 40.8097 131.604 40.719 131.649 40.617L132.992 37.472L129.728 29.771C129.683 29.669 129.66 29.5897 129.66 29.533C129.672 29.431 129.711 29.346 129.779 29.278C129.847 29.1987 129.932 29.159 130.034 29.159H131.445C131.649 29.159 131.797 29.2667 131.887 29.482L134.148 35.024L136.443 29.482C136.557 29.2667 136.715 29.159 136.919 29.159H138.296C138.398 29.159 138.483 29.193 138.551 29.261C138.619 29.329 138.653 29.4084 138.653 29.499C138.653 29.5784 138.631 29.669 138.585 29.771L133.774 40.906C133.684 41.1214 133.525 41.229 133.298 41.229H131.938Z" fill="#512D87"/>
<path d="M51.446 19.129C50.3107 19.129 49.4267 18.8214 48.794 18.206C48.17 17.582 47.8363 16.7327 47.793 15.658C47.7843 15.398 47.78 14.9907 47.78 14.436C47.78 13.8727 47.7843 13.4654 47.793 13.214C47.8363 12.148 48.1743 11.3074 48.807 10.692C49.4397 10.0767 50.3193 9.76902 51.446 9.76902C52.2087 9.76902 52.8543 9.90769 53.383 10.185C53.9203 10.4537 54.3233 10.783 54.592 11.173C54.8607 11.563 55.0037 11.927 55.021 12.265V12.291C55.021 12.3604 54.995 12.4167 54.943 12.46C54.891 12.5034 54.826 12.525 54.748 12.525H53.981C53.8943 12.525 53.8293 12.512 53.786 12.486C53.7513 12.4514 53.7167 12.3864 53.682 12.291C53.552 11.901 53.3007 11.5674 52.928 11.29C52.564 11.0127 52.07 10.874 51.446 10.874C50.7267 10.874 50.1633 11.069 49.756 11.459C49.3487 11.849 49.1277 12.4557 49.093 13.279C49.0843 13.5304 49.08 13.916 49.08 14.436C49.08 14.9474 49.0843 15.333 49.093 15.593C49.1277 16.425 49.3487 17.0404 49.756 17.439C50.1633 17.829 50.7267 18.024 51.446 18.024C52.174 18.024 52.7547 17.8247 53.188 17.426C53.6213 17.0274 53.838 16.4294 53.838 15.632V15.086H51.888C51.8013 15.086 51.7277 15.06 51.667 15.008C51.615 14.9474 51.589 14.8694 51.589 14.774V14.358C51.589 14.2714 51.615 14.1977 51.667 14.137C51.7277 14.0764 51.8013 14.046 51.888 14.046H54.826C54.9127 14.046 54.982 14.0764 55.034 14.137C55.0947 14.189 55.125 14.2627 55.125 14.358V15.606C55.125 16.3167 54.9777 16.9364 54.683 17.465C54.3883 17.9937 53.9637 18.4054 53.409 18.7C52.8543 18.986 52.2 19.129 51.446 19.129ZM59.2257 19.129C58.3331 19.129 57.6181 18.856 57.0807 18.31C56.5521 17.7554 56.2617 17.0014 56.2097 16.048L56.1967 15.606L56.2097 15.177C56.2704 14.241 56.5651 13.4957 57.0937 12.941C57.6311 12.3864 58.3374 12.109 59.2127 12.109C60.1747 12.109 60.9201 12.4167 61.4487 13.032C61.9774 13.6387 62.2417 14.462 62.2417 15.502V15.723C62.2417 15.8097 62.2114 15.8834 62.1507 15.944C62.0987 15.996 62.0294 16.022 61.9427 16.022H57.4447V16.139C57.4707 16.7024 57.6397 17.1834 57.9517 17.582C58.2724 17.972 58.6927 18.167 59.2127 18.167C59.6114 18.167 59.9364 18.089 60.1877 17.933C60.4477 17.7684 60.6384 17.5994 60.7597 17.426C60.8377 17.322 60.8941 17.2614 60.9287 17.244C60.9721 17.218 61.0457 17.205 61.1497 17.205H61.7867C61.8647 17.205 61.9297 17.2267 61.9817 17.27C62.0337 17.3134 62.0597 17.374 62.0597 17.452C62.0597 17.6427 61.9384 17.8724 61.6957 18.141C61.4617 18.4097 61.1281 18.6437 60.6947 18.843C60.2701 19.0337 59.7804 19.129 59.2257 19.129ZM61.0067 15.125V15.086C61.0067 14.488 60.8421 14.0027 60.5127 13.63C60.1921 13.2487 59.7587 13.058 59.2127 13.058C58.6667 13.058 58.2334 13.2487 57.9127 13.63C57.6007 14.0027 57.4447 14.488 57.4447 15.086V15.125H61.0067ZM66.1082 18.999C64.7388 18.999 64.0542 18.2364 64.0542 16.711V13.279H63.0402C62.9535 13.279 62.8798 13.253 62.8192 13.201C62.7672 13.1404 62.7412 13.0667 62.7412 12.98V12.538C62.7412 12.4514 62.7672 12.382 62.8192 12.33C62.8798 12.2694 62.9535 12.239 63.0402 12.239H64.0542V10.068C64.0542 9.98136 64.0802 9.91202 64.1322 9.86002C64.1928 9.79936 64.2665 9.76902 64.3532 9.76902H64.9642C65.0508 9.76902 65.1202 9.79936 65.1722 9.86002C65.2328 9.91202 65.2632 9.98136 65.2632 10.068V12.239H66.8752C66.9618 12.239 67.0312 12.2694 67.0832 12.33C67.1439 12.382 67.1742 12.4514 67.1742 12.538V12.98C67.1742 13.0667 67.1439 13.1404 67.0832 13.201C67.0312 13.253 66.9618 13.279 66.8752 13.279H65.2632V16.62C65.2632 17.0534 65.3368 17.3827 65.4842 17.608C65.6315 17.8247 65.8742 17.933 66.2122 17.933H67.0052C67.0918 17.933 67.1612 17.9634 67.2132 18.024C67.2738 18.076 67.3042 18.1454 67.3042 18.232V18.7C67.3042 18.7867 67.2738 18.8604 67.2132 18.921C67.1612 18.973 67.0918 18.999 67.0052 18.999H66.1082ZM71.3511 10.978C71.2644 10.978 71.1907 10.952 71.1301 10.9C71.0781 10.8394 71.0521 10.7657 71.0521 10.679V9.97702C71.0521 9.89036 71.0781 9.81669 71.1301 9.75602C71.1907 9.69536 71.2644 9.66502 71.3511 9.66502H72.1701C72.2567 9.66502 72.3304 9.69536 72.3911 9.75602C72.4517 9.81669 72.4821 9.89036 72.4821 9.97702V10.679C72.4821 10.7657 72.4517 10.8394 72.3911 10.9C72.3304 10.952 72.2567 10.978 72.1701 10.978H71.3511ZM71.4551 18.999C71.3684 18.999 71.2947 18.973 71.2341 18.921C71.1821 18.8604 71.1561 18.7867 71.1561 18.7V12.538C71.1561 12.4514 71.1821 12.382 71.2341 12.33C71.2947 12.2694 71.3684 12.239 71.4551 12.239H72.0791C72.1657 12.239 72.2351 12.2694 72.2871 12.33C72.3477 12.382 72.3781 12.4514 72.3781 12.538V18.7C72.3781 18.7867 72.3477 18.8604 72.2871 18.921C72.2351 18.973 72.1657 18.999 72.0791 18.999H71.4551ZM76.6546 18.999C75.2853 18.999 74.6006 18.2364 74.6006 16.711V13.279H73.5866C73.4999 13.279 73.4263 13.253 73.3656 13.201C73.3136 13.1404 73.2876 13.0667 73.2876 12.98V12.538C73.2876 12.4514 73.3136 12.382 73.3656 12.33C73.4263 12.2694 73.4999 12.239 73.5866 12.239H74.6006V10.068C74.6006 9.98136 74.6266 9.91202 74.6786 9.86002C74.7393 9.79936 74.8129 9.76902 74.8996 9.76902H75.5106C75.5973 9.76902 75.6666 9.79936 75.7186 9.86002C75.7793 9.91202 75.8096 9.98136 75.8096 10.068V12.239H77.4216C77.5083 12.239 77.5776 12.2694 77.6296 12.33C77.6903 12.382 77.7206 12.4514 77.7206 12.538V12.98C77.7206 13.0667 77.6903 13.1404 77.6296 13.201C77.5776 13.253 77.5083 13.279 77.4216 13.279H75.8096V16.62C75.8096 17.0534 75.8833 17.3827 76.0306 17.608C76.1779 17.8247 76.4206 17.933 76.7586 17.933H77.5516C77.6383 17.933 77.7076 17.9634 77.7596 18.024C77.8203 18.076 77.8506 18.1454 77.8506 18.232V18.7C77.8506 18.7867 77.8203 18.8604 77.7596 18.921C77.7076 18.973 77.6383 18.999 77.5516 18.999H76.6546ZM84.4715 19.129C83.5181 19.129 82.7771 18.8604 82.2485 18.323C81.7285 17.7857 81.4511 17.0707 81.4165 16.178L81.4035 15.619L81.4165 15.06C81.4511 14.176 81.7328 13.4654 82.2615 12.928C82.7901 12.382 83.5268 12.109 84.4715 12.109C85.4161 12.109 86.1528 12.382 86.6815 12.928C87.2101 13.4654 87.4918 14.176 87.5265 15.06C87.5351 15.1554 87.5395 15.3417 87.5395 15.619C87.5395 15.8964 87.5351 16.0827 87.5265 16.178C87.4918 17.0707 87.2101 17.7857 86.6815 18.323C86.1615 18.8604 85.4248 19.129 84.4715 19.129ZM84.4715 18.128C85.0175 18.128 85.4465 17.9547 85.7585 17.608C86.0791 17.2614 86.2525 16.763 86.2785 16.113C86.2871 16.0264 86.2915 15.8617 86.2915 15.619C86.2915 15.3764 86.2871 15.2117 86.2785 15.125C86.2525 14.475 86.0791 13.9767 85.7585 13.63C85.4465 13.2834 85.0175 13.11 84.4715 13.11C83.9255 13.11 83.4921 13.2834 83.1715 13.63C82.8508 13.9767 82.6818 14.475 82.6645 15.125L82.6515 15.619L82.6645 16.113C82.6818 16.763 82.8508 17.2614 83.1715 17.608C83.4921 17.9547 83.9255 18.128 84.4715 18.128ZM89.1774 18.999C89.0908 18.999 89.0171 18.973 88.9564 18.921C88.9044 18.8604 88.8784 18.7867 88.8784 18.7V12.538C88.8784 12.4514 88.9044 12.382 88.9564 12.33C89.0171 12.2694 89.0908 12.239 89.1774 12.239H89.7884C89.8751 12.239 89.9444 12.2694 89.9964 12.33C90.0571 12.382 90.0874 12.4514 90.0874 12.538V13.11C90.3388 12.7894 90.6334 12.5424 90.9714 12.369C91.3181 12.1957 91.7471 12.109 92.2584 12.109C93.0904 12.109 93.7361 12.3777 94.1954 12.915C94.6634 13.4437 94.8974 14.15 94.8974 15.034V18.7C94.8974 18.7867 94.8671 18.8604 94.8064 18.921C94.7544 18.973 94.6851 18.999 94.5984 18.999H93.9484C93.8618 18.999 93.7881 18.973 93.7274 18.921C93.6754 18.8604 93.6494 18.7867 93.6494 18.7V15.099C93.6494 14.4837 93.4978 14.007 93.1944 13.669C92.8998 13.331 92.4708 13.162 91.9074 13.162C91.3614 13.162 90.9281 13.3354 90.6074 13.682C90.2868 14.02 90.1264 14.4924 90.1264 15.099V18.7C90.1264 18.7867 90.0961 18.8604 90.0354 18.921C89.9834 18.973 89.9141 18.999 89.8274 18.999H89.1774Z" fill="#512D87"/>
<path fill-rule="evenodd" clip-rule="evenodd" d="M17.4639 15.1178L26.913 25.0137L17.5093 34.9959C17.2349 34.8134 17.0877 34.4172 17.0853 33.9054C17.0805 32.9247 17.0057 17.3564 17 16.1883C16.9974 15.628 17.1917 15.2862 17.4639 15.1178ZM30.0292 21.7062L18.5389 15.1313C18.4162 15.0609 18.2768 15.0181 18.138 14.999L27.304 24.5988L30.0292 21.7062ZM30.5397 27.9876L27.6973 25.0109L30.5369 21.9969L34.4472 24.234C35.4105 24.7849 34.9178 25.4742 34.4472 25.7444L30.5397 27.9876ZM18.2882 34.999C18.3683 34.9674 18.452 34.9271 18.5388 34.8774L30.0314 28.2794L27.3067 25.4259L18.2882 34.999Z" fill="#512D87"/>
</g>
<defs>
<clipPath id="clip0">
<rect width="160" height="50" fill="white" transform="translate(0 -0.000976562)"/>
</clipPath>
</defs>
</svg>
